<?xml version="1.0" encoding="UTF-8"?>
<svg width="300px" height="90px" viewBox="0 0 300 90" version="1.1" xmlns="http://www.w3.org/2000/svg" xmlns:xlink="http://www.w3.org/1999/xlink">
    <title>Logo</title>
    <g id="Page-1" stroke="none" stroke-width="1" fill="none" fill-rule="evenodd">
        <g id="Home" transform="translate(-570.000000, -132.000000)">
            <g id="Logo-Shadow" transform="translate(570.000000, 132.000000)">
                <path d="M264.52583,18 L276.005535,54.1825397 L285.885609,18 L300,18 L280.643133,76.5536131 C279.32579,80.5946184 276.973391,83.8740496 273.585937,86.3919067 C270.198484,88.9097639 266.721402,90 262.079336,90 C260.824723,90 259.554428,89.8912037 258.26845,89.6736111 C256.982472,89.4560185 255.680812,89.098545 254.363469,88.6011905 L254.363469,88.6011905 L254.363469,75.8253968 C255.618081,76.260582 256.79428,76.5714286 257.892066,76.7579365 C258.989852,76.9444444 259.97786,77.0376984 260.856089,77.0376984 C262.675277,77.0376984 264.086716,76.4160053 265.090406,75.172619 C266.094096,73.9292328 267.00369,70.1911376 267.819188,66.9583333 L267.819188,66.9583333 L249,18 L264.52583,18 Z M113.343416,17.25 C117.516014,17.25 121.22153,17.9362385 124.459964,19.3087156 C127.698399,20.6811927 130.438612,22.537156 132.680605,24.8766055 C134.922598,27.216055 136.619662,29.9142202 137.771797,32.9711009 C138.923932,36.0279817 139.5,39.2408257 139.5,42.609633 C139.5,43.4830275 139.468861,44.3408257 139.406584,45.1830275 C139.354686,45.8848624 139.281164,46.5108818 139.186017,47.0610856 L139.126335,47.3821101 L102.880783,47.3821101 L102.913741,47.7600904 C103.223517,50.88051 104.411374,53.2655258 106.477313,54.9151376 C108.62589,56.6307339 111.070285,57.4885321 113.810498,57.4885321 C115.990214,57.4885321 118.092082,56.9582569 120.116103,55.8977064 C122.033597,54.8929744 123.350225,53.5522948 124.065985,51.8756677 L124.179715,51.5931193 L136.884342,55.1490826 L136.665473,55.5758957 C134.730853,59.2493557 131.814485,62.2575433 127.91637,64.6004587 C123.868327,67.0334862 119.010676,68.25 113.343416,68.25 C109.233096,68.25 105.543149,67.5793578 102.273577,66.2380734 C99.0040036,64.896789 96.2326512,63.0720183 93.9595196,60.7637615 C91.6863879,58.4555046 89.9581851,55.7885321 88.774911,52.762844 C87.591637,49.737156 87,46.5711009 87,43.2646789 C87,39.7087156 87.591637,36.3555046 88.774911,33.2050459 C89.9581851,30.0545872 91.6708185,27.2940367 93.9128114,24.9233945 C96.1548043,22.5527523 98.9105872,20.6811927 102.18016,19.3087156 C105.449733,17.9362385 109.170819,17.25 113.343416,17.25 Z M165.122905,17.25 C172.657356,17.25 178.482309,18.996789 182.597765,22.490367 C186.615235,25.9007645 188.671796,30.856861 188.76745,37.3586563 L188.77095,37.837156 L188.77095,50.4701835 L188.774115,50.7636024 C188.803662,52.1047482 189.040037,53.051896 189.48324,53.6050459 C189.924182,54.1553735 190.679032,54.5039833 191.747791,54.6508753 L192,54.6811927 L192,67.3142202 L191.507332,67.4260751 C190.371625,67.675129 189.332868,67.8405963 188.391061,67.9224771 C187.314711,68.016055 186.333333,68.062844 185.446927,68.062844 C182.597765,68.062844 180.445065,67.5169725 178.988827,66.4252294 C177.61825,65.3977064 176.724395,63.9695359 176.307263,62.1407178 L176.234637,61.7931193 L175.949721,59.5472477 L175.596272,59.9850682 C173.45427,62.5793298 170.928697,64.5856832 168.019553,66.0041284 C164.94879,67.5013761 161.703911,68.25 158.284916,68.25 C155.815642,68.25 153.520484,67.8600917 151.399441,67.0802752 C149.278399,66.3004587 147.458101,65.2087156 145.938547,63.8050459 C144.418994,62.4013761 143.216015,60.7481651 142.329609,58.8454128 C141.443203,56.9426606 141,54.8683486 141,52.6224771 C141,50.1894495 141.522346,47.9747706 142.567039,45.9784404 C143.611732,43.9821101 145.083799,42.2665138 146.98324,40.8316514 C148.882682,39.396789 151.130354,38.2738532 153.726257,37.462844 C156.32216,36.6518349 159.20298,36.2463303 162.368715,36.2463303 C164.458101,36.2463303 166.484171,36.4178899 168.446927,36.7610092 C170.231251,37.0729358 171.80627,37.5266472 173.171984,38.1221435 L173.575419,38.3050459 L173.575419,36.0591743 L173.57235,35.7630024 C173.457764,30.2833861 170.134764,27.543578 163.603352,27.543578 C160.880819,27.543578 158.284916,27.9958716 155.815642,28.9004587 C153.522745,29.7404325 151.120663,30.9703941 148.609395,32.5903436 L148.027933,32.9711009 L143.564246,23.6133028 L144.224407,23.1961529 C147.31304,21.2824485 150.51198,19.8306728 153.821229,18.8408257 C157.366853,17.7802752 161.134078,17.25 165.122905,17.25 Z M245.823232,0 L245.823232,50.5236351 C245.823232,52.0163816 246.056818,53.0581943 246.52399,53.6490731 C246.957792,54.1977463 247.70042,54.5453081 248.751875,54.6917585 L249,54.7219847 L249,67.3170334 C247.62963,67.6280223 246.446128,67.830165 245.449495,67.9234617 C244.452862,68.0167584 243.518519,68.0634067 242.646465,68.0634067 C240.030303,68.0634067 237.912458,67.5191762 236.292929,66.4307152 C234.754377,65.3966772 233.834205,63.9276047 233.532412,62.0234977 L233.489899,61.719234 L233.209596,59.2002242 C231.465488,62.247915 229.114057,64.5181337 226.155303,66.0108802 C223.196549,67.5036267 220.035354,68.25 216.671717,68.25 C213.308081,68.25 210.209175,67.6124728 207.375,66.3374185 C204.540825,65.0623642 202.09596,63.2741783 200.040404,60.9728607 C197.984848,58.6715432 196.380892,55.9814896 195.228535,52.9026999 C194.076178,49.8239102 193.5,46.4496811 193.5,42.7800125 C193.5,39.2347396 194.029461,35.9071588 195.088384,32.7972702 C196.147306,29.6873816 197.642256,26.997328 199.573232,24.7271093 C201.504209,22.4568907 203.79335,20.6687047 206.440657,19.3625515 C209.087963,18.0563983 212,17.4033217 215.176768,17.4033217 C218.602694,17.4033217 221.701599,18.2118928 224.473485,19.8290348 C227.106776,21.3653198 229.16385,23.4068061 230.644706,25.9534939 L230.873737,26.3598008 L230.873737,0 L245.823232,0 Z M55.5,5.68434189e-14 L55.5,13.4181757 L27,13.5 L26.975,28.5 L37.5,28.5 L37.5,21 L39,21 L51,34.5 L39,49.5 L37.5,49.5 L37.5,42 L26.953,42 L26.9111299,67.5 L12,67.5 L11.9999934,44.9946833 C8.80147435,47.2355004 7.5,50.7354689 7.5,55.5 C7.5,60.5203752 8.82950567,64.5 7.5,64.5 C6.17049433,64.5 0,56.1267058 0,48 C0,40.1058967 3.4087347,33.6304949 11.9994989,30.5111409 L12,5.68434189e-14 L55.5,5.68434189e-14 Z M85.6597109,17.6044438 C85.9709566,17.6044438 86.2822023,17.6355684 86.593448,17.6978176 L86.593448,17.6978176 L86.593448,31.1436329 C82.9829976,31.2058821 79.7149175,31.797249 76.7892077,32.9177336 C73.8634978,34.0382182 71.807232,35.7189451 70.5,37.9599143 L70.5,37.9599143 L70.5,67.5 L55.5,67.5 L55.5,18 L69,18 L69,28.2490477 C70.6807269,24.949843 73.0698212,22.3665035 75.7154099,20.4990291 C78.3609986,18.6315547 81.1777724,17.666693 84.1657314,17.6044438 L84.1657314,17.6044438 Z M164.932961,44.5747706 C162.147114,44.5747706 159.851955,45.1986239 158.047486,46.4463303 C156.243017,47.6940367 155.340782,49.316055 155.340782,51.3123853 C155.340782,53.1215596 156.037244,54.603211 157.430168,55.7573394 C158.823091,56.9114679 160.595903,57.4885321 162.748603,57.4885321 C164.394786,57.4885321 165.993482,57.2077982 167.544693,56.6463303 C169.095903,56.0848624 170.378026,55.3362385 171.391061,54.4004587 C172.766398,53.3399083 173.49227,52.2237116 173.568677,51.0518688 L173.575419,50.8444954 L173.575419,46.1655963 L173.071622,45.9835579 C171.883976,45.5707425 170.611499,45.2415138 169.25419,44.9958716 C167.70298,44.7151376 166.26257,44.5747706 164.932961,44.5747706 Z M219.941919,30.0916671 C218.322391,30.0916671 216.843013,30.4493043 215.503788,31.1645787 C214.164562,31.8798531 212.996633,32.8283691 212,34.0101268 C211.003367,35.1918844 210.24032,36.5602354 209.710859,38.1151797 C209.181397,39.670124 208.916667,41.3183649 208.916667,43.0599025 C208.916667,44.8636379 209.212542,46.5429777 209.804293,48.097922 C210.396044,49.6528663 211.205808,50.9901184 212.233586,52.1096783 C213.261364,53.2292382 214.507155,54.100007 215.97096,54.7219847 C217.434764,55.3439624 219.007576,55.6549513 220.689394,55.6549513 C222.744949,55.6549513 224.722643,55.048523 226.622475,53.8356664 C228.410552,52.6941544 229.798596,51.1531992 230.786607,49.2128009 L230.967172,48.8442953 L230.967172,38.581663 L230.806113,38.1711865 C229.863214,35.8688131 228.406379,33.9686616 226.435606,32.4707319 C224.348906,30.8846887 222.184343,30.0916671 219.941919,30.0916671 Z M113.156584,28.0114679 C110.229537,28.0114679 107.816281,28.9316514 105.916815,30.7720183 C104.099934,32.5323694 103.009547,34.8492352 102.645653,37.7226158 L102.600534,38.1178899 L123.712633,38.1178899 C123.401246,34.9986239 122.280249,32.5344037 120.349644,30.7252294 C118.419039,28.916055 116.021352,28.0114679 113.156584,28.0114679 Z" id="Shape" fill="#19A96D" fill-rule="evenodd"></path>
                <path d="M27.000004,28.4886475 C26.9996944,28.4886475 30.499693,28.4924316 37.5,28.5 L27.000004,28.9660645 C20.1583252,28.9660645 15.6148347,29.7435393 11.9991936,31.0656738 L7.15588379,32.9528198 C8.27647873,32.2500695 9.04641688,31.7978803 9.46569824,31.5962524 C9.93833612,31.368966 10.7821151,31.0084313 11.997035,30.5146484 C15.4858432,29.2931955 19.499004,28.4886475 27.000004,28.4886475 Z" id="Path" fill-opacity="0.2" fill="#FFFFFF" fill-rule="nonzero"></path>
                <path d="M26.9990539,42 L26.9990539,46 L25.5,46 C18.6697273,46 14.3927364,47.4560416 11.9976848,49.965566 L11.997035,45 C15.0801962,43.2861859 19.3098728,42.0721883 24.7898876,42.0043505 L26.9990539,42 Z" id="Path" fill-opacity="0.1" fill="#000000" fill-rule="nonzero"></path>
            </g>
        </g>
    </g>
</svg>