<svg xmlns="http://www.w3.org/2000/svg" viewBox="0 0 1545.3235 352.81555"><defs/><g fill="#007ee5"><path d="M77.156511 134.63976L189.66387 65.169535 111.58471 0 0 72.855814zM189.66387 204.11L77.156512 134.63976 1e-7 196.42749 111.58471 269.2833zM379.32398 196.42749l-77.15275-61.78773L189.66387 204.11l78.07917 65.1733zM189.66387 65.169535l112.50736 69.470225 77.15275-61.783946L267.74304 0z"/><path d="M301.70802 261.23549l-33.50554 21.87633-78.31265-64.98124-78.30512 64.98124-33.505544-21.87633v24.52378l111.810664 67.05627 111.81819-67.05627z"/></g><g fill="#007ee5"><path d="M518.80644154 276.56335186h61.8244497c18.01746427 0 43.45494695 0 64.30681492-16.22112998 25.44199834-19.3895345 38.51278648-58.88172006 38.51278648-102.96854332 0-115.65567916-73.14404351-116.01223746-109.17897208-116.01223746h-55.46507902zm51.58807359-194.6445643h8.82368158c20.84736065 0 49.47130216 2.46882574 49.47130216 74.75080574 0 76.87210703-28.97147264 79.34544093-49.47130216 79.34544093h-8.82368158zm130.8206896 20.8022265v173.8423378h48.39710744v-75.10285004c0-13.40477227 0-53.60105144 35.6783661-53.60105144 1.7737643 0 3.88603676 0 8.11959632.7040936v-47.25070877c-2.46431091-.70408525-4.92862182-1.06064772-8.47615045-1.06064772-28.25835605 0-36.73901382 29.62590726-40.97708904 44.43435106v-41.96100881h-42.74183037zm169.79833946-3.8815211c-51.93108906 0-71.0046854 36.32378607-71.0046854 90.62892277 0 56.06536235 20.4817752 90.6199031 70.65715427 90.6199031 50.8749403 0 71.01373342-34.90207189 71.01373342-90.6199031 0-54.3051367-19.07356295-90.62892276-70.6662023-90.62892276zm0 33.8549595c14.84906812 0 20.4953222 11.98757042 20.4953222 56.77396327 0 46.5466185-6.35937067 56.77847894-20.4953222 56.77847894-14.48347432 0-20.83832932-10.58390724-20.83832932-56.77847894 0-42.6650974 4.94667615-56.77396327 20.49079819-56.77396327zm85.0232713-29.9734384v232.7330892h47.69755454v-71.57789141c5.29877302 5.63722274 14.13145255 15.15145927 33.20952282 15.15145927 55.46508737 0 59.00358466-66.99680072 59.00358466-91.67603517 0-29.2648408-5.6507614-56.42192482-22.61656756-73.69918351-8.47167651-8.4626118-21.54691354-13.40478062-33.2050155-13.40478062-23.67278309 0-33.21411362 17.27727038-39.22137071 28.56525953v-26.09191728zm47.69755454 69.81767077c0-15.5125374 0-40.1917635 21.9034927-40.1917635 18.7260819 0 20.13879312 24.32718764 20.13879312 55.00471462 0 36.67582786-1.76027574 58.18214213-21.55150434 58.18214213-20.48627416 0-20.48627416-14.81295113-20.48627416-39.8487397v-33.14635355zM1110.3588013 41.3614411v235.20191076h28.62390812c3.88155449-12.33960888 5.65526872-15.86456751 9.18925869-22.566962 4.23354286 8.8146586 12.36216217 26.09192898 40.28201008 26.09192898 9.18475137 0 18.72157458-1.76022566 28.26290511-6.69336315 31.80131893-16.57317678 33.92268115-68.76154204 33.92268115-84.98718768 0-41.95649649-13.42739234-88.16009619-56.18726034-88.16009619-20.838346 0-30.3706619 11.28800084-36.3870171 18.6989879V41.3614411zm47.7019784 122.71913926c0-8.81465025 0-17.62930884 5.66436682-24.33621064 3.52948265-4.58109069 9.18024405-7.3974484 15.53957298-7.3974484 13.77938072 0 21.19492517 11.63552363 21.19492517 57.4735412 0 44.78639286-6.70238613 56.76945596-21.90800002 56.76945596-20.49537228 0-20.49537228-22.56245467-20.49537228-42.31305895v-40.19627917zm175.75154208-65.2410874c-51.94461937 0-71.02277311 36.32378607-71.02277311 90.62892277 0 56.06536235 20.4998796 90.6199031 70.66619394 90.6199031 50.87496535 0 71.01375847-34.90207189 71.01375847-90.6199031 0-54.3051367-19.08266106-90.62892276-70.6571793-90.62892276zm0 33.8549595c14.82649812 0 20.48627416 11.98757042 20.48627416 56.77396327 0 46.5466185-6.3548216 56.77847894-20.48627416 56.77847894-14.49253904 0-20.86088262-10.58390724-20.86088262-56.77847894 0-42.6650974 4.95571583-56.77396327 20.50430345-56.77396327z"/><path d="M1402.58736075 102.72101407l44.8767229 84.98718435-51.58361635 88.8596691h42.03327118l29.3280518-52.18384124 25.43748268 52.18384125h52.64417225l-51.94011204-97.3222809 44.86311746-76.5200569h-42.02868039l-22.26457918 40.1962675-18.72157458-40.1962675h-52.64425573z"/></g></svg>