<svg xmlns="http://www.w3.org/2000/svg" viewBox="0 0 2520.0339 370.95148"><defs/><path fill="#757575" d="M646.48606 55.485702c24.02-22.36 56.34-35.51 89.12-36.52 19.24-.61 38.73 2.4 56.53 9.86 15.51 6.42 29.4 16.24 41.62 27.66-8.77 8.78-17.54 17.56-26.32 26.31-12.01-11.2-26.65-19.77-42.68-23.62-21.91-5.59-45.75-3.41-66.21 6.26-18.29 8.51-33.66 22.990005-43.47 40.600008-8.39 15.02-12.86 32.22-12.81 49.43-.05 21.78 7.13 43.57 20.37 60.9 11.26 14.86 26.89 26.4 44.48 32.61 19.29 7.02 40.66 7.33 60.5 2.47 17.46-4.3 33.26-14.41 45.01-27.95 10.11-12.08 14.77-27.69 16.81-43.06-29.76-.02-59.52 0-89.27-.01-.01-12.44-.01-24.88 0-37.31 41.86-.01 83.72-.01 125.58-.01 3.41 19.66 2.27 40.03-2.39 59.39-4.57 18.29-13.21 35.82-26.32 49.51-11.12 11.95-24.42 21.97-39.36 28.64-20.32 9.17-42.99 12.19-65.13 11.14-35.54-1.84-70.04-18.13-94.09-44.34-25.29-26.37-38.95-63.51-36.58-100 1.94-34.96 18.54-68.660008 44.61-91.960008zm814.91004-27.3c12.87-.01 25.75-.01 38.63-.01 0 86.170008.01 172.340008-.01 258.510008h-38.62c-.01-86.17-.01-172.34 0-258.500008zm675.48 19.9c6.59-2.12 14.3-1.15 19.84 3.15 5.06 3.79 8.49 9.81 8.66 16.18.5 6.83-2.58 13.68-7.9 17.950005-5.65 4.83-13.89 6.03-20.84 3.66-8.46-2.92-14.7-11.510005-14.4-20.530005-.21-9.05 6.13-17.57 14.64-20.41zm-359.7 1.53c24.79.01 49.58-.03 74.37.02 21.16.13 42.65 4.22 61.38 14.37 26.88 14.41 46.95 40.680008 54.04 70.330008 5.55 23.23 5.44 47.9-.5 71.04-7.64 29.59-28.3 55.56-55.55 69.43-18.57 9.55-39.64 13.29-60.38 13.32-24.46.02-48.91.01-73.37 0 .01-79.51 0-159.01.01-238.510008zm30.63 29.31c-.01 59.960008 0 119.930008 0 179.890008 13.89-.01 27.79.02 41.69-.01 11.44-.07 22.97-1.27 33.92-4.74 16.65-5.06 31.67-15.69 41.45-30.16 9.69-14.18 13.88-31.44 14.61-48.42.7-15.89-.93-32.16-6.94-46.99-6.48-16.38-18.92-30.260003-34.43-38.590003-14.48-7.930005-31.17-10.840005-47.53-10.940005-14.26-.09-28.51-.01-42.77-.04zM955.08606 117.25571c17.93-2.74 36.71-.24 53.12004 7.57 15.6 7.32 28.9 19.48 37.49 34.43 16.23 28.07 15.62 65.14-1.85 92.5-8.57 13.58-21.1 24.58-35.59 31.45-30.69004 14.83-69.82004 10.56-96.04004-11.44-14.31-11.78-24.54-28.36-28.73-46.4-4.94-21.08-2.48-44.01 7.65-63.23 12.49-24.1 37.16-41.07 63.95-44.88zm4.68 34.49c-11.17 2.18-21.43 8.52-28.48 17.44-16.3 20.52-15.54 52.85 2.22 72.26 9.51 10.57 23.84 16.65 38.07 15.84 13.75-.58 26.94-7.55 35.46004-18.29 17.9-22.25 15.33-58.8-7.06004-77.12-10.99-9.19-26.18-12.99-40.21-10.13zm191.93004-35.04c27.24-3.09 55.95 6.55 74.75 26.73 16.45 17.16 24.67 41.38 23.39 65-.85 23.45-11.51 46.48-29.34 61.83-19.43 17.19-46.67 24.55-72.2 20.68-26.22-3.58-50.48-19.72-63.4-42.89-16.93-29.87-14.85-69.7 5.93-97.19 14.28-19.32 37.06-31.72 60.87-34.16zm-.81 35.34c-10.51 2.4-20.1 8.48-26.84 16.88-16.59 20.58-15.82 53.31 2.24 72.77 9.61 10.55 24.06 16.53 38.34 15.56 14.41-.75 28.13-8.54 36.48-20.27 9.86-13.55 12.44-31.58 8.45-47.68-3.09-12.61-10.95-24.11-22.01-31.03-10.74-6.87-24.25-9.11-36.66-6.23zm188.8-35.08c17.63-2.66 36.63 1.32 50.67 12.61 2.7 2.03 4.7 4.89 7.63 6.65.22-4.92.08-9.85.12-14.77 12.21 0 24.42-.01 36.64 0-.02 52.67.04 105.34-.03 158.01-.1 21.53-4.33 44.06-17.48 61.63-10.21 13.94-25.84 23.34-42.57 27.19-19.52 4.48-40.73 3.62-59.05-4.93-19.03-8.79-34.23-25.11-42.42-44.33 11.21-4.68 22.43-9.34 33.65-14 6.12 14.15 18.19 26.39 33.51 30.01 10.08 2.29 20.87 1.43 30.56-2.17 10.01-3.75 18.13-11.85 22.26-21.67 5.48-12.45 5.2-26.38 4.75-39.69-3.15 2.22-5.43 5.42-8.54 7.67-13.99 10.95-32.72 14.64-50.07 11.95-19.49-2.83-37.58-13.19-50.59-27.86-13.46-15.01-21.57-34.75-22.34-54.91-1.15-22.8 6.96-45.87 22.08-62.95 13.09-15.01 31.42-25.62 51.22-28.44zm3.3 35.13c-12.37 2.94-23.18 11.2-29.78 22-12.74 20.67-10.94 49.88 5.79 67.87 11.67 12.94 30.85 18.65 47.61 13.53 15.29-4.42 26.97-17.62 31.43-32.65 5.83-19.36 2.43-42.2-11.42-57.43-10.66-12.03-28.06-17.3-43.63-13.32zm245.65-34.88c18.32-2.93 37.87.35 53.51 10.57 16.04 10.34 27.83 26.46 34.69 44.12 1.35 3.4 2.72 6.8 4.08 10.2-39.19 16.2-78.37 32.42-117.56 48.61 4.67 9.1 11.6 17.4 20.95 21.92 16.7 7.88 38.07 5.95 52.49-5.88 4.86-3.86 8.88-8.66 12.47-13.7 10.01 6.65 20.01 13.33 30 20-9.67 14.09-23.22 25.62-39.03 32.23-19.07 7.99-40.89 8.69-60.64 2.85-17.92-5.36-33.97-16.81-44.71-32.14-24.03-33.79-21.05-84.4 7.55-114.62 12.15-12.88 28.69-21.52 46.2-24.16zm-23.37 54c-6.03 8.8-8.54 19.6-8.32 30.18 26.22-10.85 52.42-21.76 78.64-32.62-4.36-10.37-15.14-16.58-25.91-18.1-17.2-2.85-34.88 6.37-44.41 20.54zm864.84-51.02c16.28-1.68 33.31.31 48.04 7.76 12.8 6.46 23.38 16.99 30.42 29.43 9.3 16.54 12.34 36.02 11.26 54.79-42.97.01-85.94 0-128.91.01.66 15.65 6.87 31.59 19.4 41.5 14.84 12.9 37.02 14.91 54.85 7.53 10.4-4.34 18.02-13.49 22.34-23.71 9.1 3.78 18.22 7.54 27.32 11.34-6.2 14.61-17.47 26.8-31.11 34.8-13.3 7.72-29.02 10.35-44.24 9.67-14.78-.47-29.64-4.49-42.02-12.72-16.46-10.92-28.62-28.04-33.71-47.11-4.03-15.29-4.5-31.53-1.47-47.05 3.56-18.16 13.19-34.97 26.73-47.55 11.21-10.47 25.86-17.06 41.1-18.69zm-14.66 34.09c-11.59 7.21-19.22 19.51-22.55 32.57 31.56.01 63.11.02 94.67 0-1.03-11.52-7.43-22-15.99-29.52-8.31-7.02-19.46-9.5-30.11-9.73-9.08-.36-18.33 1.75-26.02 6.68zm-366.92-23.83c8.11-5.12 17.3-8.89 26.95-9.45 8.65-.33 17.46.66 25.56 3.86-3.85 9.55-7.75 19.09-11.63 28.62-11.26-3.33-24.1-3.42-34.61 2.33-14.69 7.76-23.9 23.92-23.94 40.44-.2 30.62-.03 61.25-.08 91.87-10.22.01-20.44.01-30.65 0 .02-54.41.01-108.81 0-163.22 9.77-.01 19.54 0 29.31-.01.05 9.01-.09 18.02.08 27.02 1.66-.59 1.98-2.44 2.75-3.81 3.33-7.45 9.44-13.33 16.26-17.65zm79.99-5.56c10.21.01 20.41.01 30.63 0v163.24c-10.22 0-20.43-.01-30.63 0-.01-54.41-.02-108.82 0-163.24zm58.13.01c11.09 0 22.19-.01 33.3 0 12.66 33.49 25.36 66.98 38.03 100.46 3.48 8.83 6.48 17.87 10.28 26.57 16.49-42.27 32.56-84.7 48.89-127.03 10.87 0 21.73-.01 32.61 0-22.14 54.43-44.39 108.82-66.56 163.23-10.22 0-20.43-.01-30.63 0-22-54.4-43.97-108.82-65.92-163.23z"/><path fill="#0066da" d="M31.388203 317.92446l18.309786 31.62598c3.80463 6.6581 9.273787 11.88947 15.694101 15.6941l65.39209-113.18775H.000001c0 7.37147 1.902315 14.74294 5.706946 21.40105z"/><path fill="#00ac47" d="M207.59016 118.89471L142.19807 5.706946c-6.42031 3.80463-11.88947 9.035998-15.6941 15.694102L5.706946 230.65574A43.087443 43.087443 0 000 252.05679h130.78418z"/><path fill="#ea4335" d="M349.78823 365.24454c6.42032-3.80463 11.88948-9.036 15.69411-15.6941l7.60926-13.07841 36.38178-63.01419c3.80463-6.65811 5.70694-14.02958 5.70694-21.40105H284.38663l27.83088 54.69157z"/><path fill="#00832d" d="M207.59016 118.89471L272.98225 5.706946C266.56194 1.902316 259.19047 0 251.5812 0h-87.98208c-7.60926 0-14.98073 2.140105-21.40105 5.706946z"/><path fill="#2684fc" d="M284.39614 252.05679H130.78418L65.392092 365.24454c6.420314 3.80463 13.791786 5.70694 21.401047 5.70694H328.38719c7.60926 0 14.98073-2.1401 21.40105-5.70694z"/><path fill="#ffba00" d="M349.07487 126.02839L288.67635 21.401048c-3.80463-6.658104-9.27378-11.889471-15.6941-15.694102L207.59016 118.89471l76.80598 133.16208h130.5464c0-7.37147-1.90232-14.74295-5.70695-21.40105z"/></svg>