<svg xmlns="http://www.w3.org/2000/svg" viewBox="0 0 1778.0681 266.37644"><defs/><g style="line-height:125%;-inkscape-font-specification:'Segoe UI'"><path fill="#094ab1" d="M624.7156577 250.25112415c-30.76421653 0-55.40071584-10.13703744-73.90957401-30.41111232-18.5089427-20.27400725-27.7633887-46.65044841-27.76337179-79.12937419-.0000169-34.89951377 9.43094738-62.73850304 28.29292666-83.51706756 18.86187784-20.77818837 44.5322543-31.1673768 77.01120543-31.16759996 29.95705237.00022316 54.08922095 10.0868157 72.39657338 30.25981226 18.30697203 20.17337695 27.46055526 46.54980966 27.46077504 79.1293911-.00021978 35.40404736-9.38074423 63.394335-28.1416156 83.97094746-18.76125177 20.57667163-43.87686612 30.86500321-75.34691912 30.86500321zm1.81559737-201.22769492c-22.79581304.00018935-41.30472193 8.22076834-55.52674357 24.66174205-14.22216535 16.44130676-21.33320153 38.02661025-21.33316772 64.7559781-.0000338 26.72957072 6.93448408 48.2392229 20.80361285 64.52903265 13.86901042 16.28989427 31.9492272 24.43481605 54.24070106 24.43479914 23.80424626.0000169 42.5653036-7.7666695 56.28323966-23.30005924 13.71758948-15.5333052 20.5764772-37.26990706 20.57666318-65.20988166-.00018597-28.64581954-6.65733972-50.78586823-19.97146969-66.42025597-13.3144681-15.63405892-31.67206593-23.45116572-55.07283577-23.45135507zm269.61484918 197.59652553h-24.81303451v-88.3586383c-.0001268-32.88219932-12.00317609-49.32333702-36.00916478-49.32347227-12.40660178.00013525-22.66970922 4.66517333-30.78935614 13.9951565-8.11976525 9.33021987-12.1796183 21.10631103-12.17956758 35.32831577v88.3586383h-24.81304296V91.6897579h24.8130345v25.72082897h.60520195c11.70039338-19.56786225 28.64587025-29.35185465 50.8364729-29.35201526 16.94536698.0001606 29.90663789 5.4721346 38.88384653 16.41593891 8.97692123 10.94410439 13.46545793 26.75482445 13.46561009 47.43224895zm171.42177017-71.26185037H958.17869051c.40346796 17.24814124 5.04330725 30.56244028 13.91951788 39.94294782 8.8761261 9.38055826 21.08092627 14.07081203 36.61440053 14.07079512 17.44971462.0000169 33.48733364-5.74933815 48.11311065-17.24808207v23.30005078c-13.61706484 9.88488053-31.621643 14.82730811-54.01381902 14.82730811-21.88794673 0-39.08558897-7.03539756-51.59292672-21.10620959-12.50742228-14.07077821-18.76113342-33.8657127-18.76113342-59.38487108 0-24.10687682 6.83368049-43.7505087 20.50104146-58.93097174 13.66727644-15.18017141 30.63803663-22.77033953 50.91211151-22.77050014 20.27399035.0001606 35.9586066 6.55644313 47.05401782 19.6688687 11.09515762 13.11270877 16.6427787 31.319004 16.64286322 54.61895335zm-25.418228-21.03057097c-.10101491-14.3228675-3.55564065-25.46854103-10.36396175-33.43706286-6.80857468-7.96828515-16.26475465-11.95249112-28.36853991-11.95262637-11.7005709.00013525-21.63587435 4.1860583-29.80591038 12.5578114-8.1702051 8.37199825-13.21351235 19.3159378-15.12992177 32.83187783zm66.42031092 92.29242134V29.65715472h59.91444286c76.45620664.00020626 114.68439449 35.25285466 114.68464808 105.75801876-.0002536 33.48759568-10.61637225 60.39356635-31.84844052 80.71801344-21.23249092 20.32451471-49.65149603 30.48676784-85.25701533 30.48676784zm25.418228-193.96535699v170.9678945H1166.36613c28.4441109.00001691 50.58421454-7.61535 66.4203109-22.84614298 15.83575825-15.23070845 23.75380643-36.81600772 23.7539755-64.75598233-.00016907-55.57701011-29.55392254-83.36556293-88.66126042-83.36577003zm269.31228624 64.15078715c-4.33738625-3.32844585-10.5910974-4.99272372-18.76113342-4.99286742-10.59101287.0001437-19.44194863 4.99298576-26.55297636 14.97860226-7.11111226 9.98585318-10.66658385 23.6027405-10.66658385 40.85073805v78.97809695h-24.8129838V91.6897579h24.8129838v31.92410028h.6052442c3.53019674-10.89340674 8.9265913-19.39136087 16.1890146-25.49388775 7.26225425-6.10225639 15.38190962-9.15343107 24.35913517-9.15360859 6.45531832.00017752 11.39769519.70622532 14.82729966 2.11818567zm39.64028345-64.45338305c-4.43814758.00020626-8.22058576-1.51279014-11.34739906-4.53897315-3.12689784-3.02576964-4.69030449-6.85867386-4.69030449-11.49871264 0-4.63962628 1.56340665-8.49774957 4.69030449-11.57438762 3.1268133-3.07619088 6.90925148-4.61438945 11.34739906-4.61461346 4.53899344.000224 8.39708714 1.53842258 11.57436564 4.61461346 3.1772785 3.07663805 4.76587548 6.93476134 4.76596001 11.57438762-.00008453 4.43830227-1.58868151 8.22076834-4.76596001 11.34741427-3.1772785 3.12704239-7.0353722 4.69047778-11.57436564 4.69027152zm12.10395432 194.2679529h-24.81306832V91.68975788h24.81306832zm172.02697212-154.93019688l-61.73000643 154.93019687h-24.35913516L1482.27850091 91.6897579h27.23387608l39.33774588 112.56645819c2.92503706 8.2710594 4.74060062 15.4829668 5.44677522 21.63576446h.60515968c1.00862763-7.7666526 2.62241495-14.77682602 4.841531-21.03057097l41.15339398-113.17165168zm150.9964265 83.6683465h-109.3891839c.40346796 17.24814124 5.04322272 30.56244028 13.91951788 39.94294782 8.8761261 9.38055826 21.08092627 14.07081203 36.614316 14.07079512 17.44971462.0000169 33.48741817-5.74933815 48.11311065-17.24808207v23.30005078c-13.61706485 9.88488053-31.62155848 14.82730811-54.0137345 14.82730811-21.88794672 0-39.0856735-7.03539756-51.59292671-21.10620959-12.50742228-14.07077821-18.76113342-33.8657127-18.76113342-59.38487108 0-24.10687682 6.83368048-43.7505087 20.50104145-58.93097174 13.66727645-15.18017141 30.6379521-22.77033953 50.91211152-22.77050014 20.27399035.0001606 35.9586066 6.55644313 47.05401781 19.6688687 11.09507309 13.11270877 16.64269417 31.319004 16.64286323 54.61895335zm-25.41822799-21.03057097c-.10101492-14.3228675-3.55564066-25.46854103-10.36396175-33.43706286-6.80857469-7.96828515-16.26475466-11.95249112-28.36862445-11.95262637-11.70048635.00013525-21.63578981 4.1860583-29.80582584 12.5578114-8.1702051 8.37199825-13.21351235 19.3159378-15.12992177 32.83187783z" font-family="Segoe UI" font-size="180" font-weight="400" letter-spacing="0" style="-inkscape-font-specification:'Segoe UI'" word-spacing="0"/></g><path fill="#0364b8" d="M251.18707 179.7599742l85.82085-82.07257c-17.82672-69.511045-88.62782-111.409727-158.13927-93.583008-31.30291 8.027755-58.49104 27.432738-76.25762 54.426713 1.32841-.0335 148.57604 121.228875 148.57604 121.228865z"/><path fill="#0078d4" d="M158.54335 73.9819492l-.004.0141c-16.39862-10.15659-35.31074-15.52512-54.60028-15.49888-.44563 0-.88359.0283-1.32841.0335-57.376172.71083-103.31295078 47.799625-102.60252978 105.175795.257528 20.8129 6.76070398 41.06837 18.66630678 58.14148l128.573223-16.10311 98.57452-79.48438z"/><path fill="#1490df" d="M337.00792 97.6878142c-1.88665-.12595-3.78258-.21313-5.70072-.21313-11.51326-.0113-22.90663 2.34035-33.47454 6.90925l-.002-.009-52.00764 21.8858 57.33459 70.82249 102.5 24.91639c22.11951-41.06393 6.76191-92.28406-34.30203-114.40358-10.6107-5.71566-22.32214-9.09379-34.34682-9.90795v-.0004z"/><path fill="#28a8ea" d="M18.674407 221.8479742c19.41346 27.91187 51.265742 44.54621 85.265033 44.52845H331.3068c31.05911.009 59.6152-17.03476 74.34998-44.37587l-159.8346-95.7401z"/></svg>